<svg width="32" height="32" viewBox="0 0 32 32" fill="none" xmlns="http://www.w3.org/2000/svg">
    <path d="M14.7399 25.9672L14.7385 25.9659C11.285 22.8343 8.49976 20.3063 6.5658 17.9419C4.64333 15.5915 3.66675 13.5248 3.66675 11.3333C3.66675 7.77895 6.4457 5 10.0001 5C12.0173 5 13.969 5.94394 15.2387 7.43501L16.0001 8.32907L16.7614 7.43501C18.0312 5.94394 19.9829 5 22.0001 5C25.5545 5 28.3334 7.77895 28.3334 11.3333C28.3334 13.5249 27.3568 15.5915 25.4342 17.9438C23.5001 20.31 20.715 22.8411 17.2616 25.9793C17.2614 25.9795 17.2611 25.9797 17.2609 25.9799L16.0026 27.1167L14.7399 25.9672Z" stroke="black" stroke-width="2"/>
</svg>