<svg width="25" height="24" viewBox="0 0 25 24" fill="none" xmlns="http://www.w3.org/2000/svg">
    <path d="M4.10744 4.20874L11.5002 9.94641V5.01373C11.5003 4.82461 11.5525 4.63925 11.6509 4.47863C11.7494 4.318 11.8903 4.18851 12.0575 4.10477C12.2248 4.02104 12.4118 3.98641 12.5975 4.0048C12.7832 4.02319 12.9601 4.09387 13.1082 4.20884L22.1084 11.1943C22.2302 11.289 22.3289 11.4109 22.3968 11.5504C22.4647 11.69 22.5 11.8436 22.5 11.9992C22.5 12.1548 22.4647 12.3084 22.3968 12.448C22.3289 12.5875 22.2302 12.7094 22.1084 12.8041L13.1082 19.7907C12.96 19.9053 12.7831 19.9757 12.5976 19.994C12.412 20.0122 12.2251 19.9775 12.058 19.8938C11.8908 19.8101 11.75 19.6808 11.6515 19.5204C11.5529 19.3599 11.5006 19.1748 11.5002 18.9858V14.0524L4.10844 19.7908C3.96032 19.9059 3.78337 19.9767 3.59761 19.9952C3.41186 20.0136 3.22472 19.979 3.05736 19.8953C2.88999 19.8115 2.74909 19.6819 2.65059 19.5212C2.5521 19.3605 2.49993 19.175 2.5 18.9858V5.01373C2.50045 4.82484 2.55289 4.63983 2.65141 4.47951C2.74994 4.31919 2.89064 4.18993 3.05769 4.10628C3.22474 4.02262 3.4115 3.98789 3.59695 4.00599C3.78241 4.02409 3.95921 4.09431 4.10744 4.20874Z" fill="#ACB8C2"/>
</svg>