<svg width="33" height="32" viewBox="0 0 33 32" fill="none" xmlns="http://www.w3.org/2000/svg">
    <path fill-rule="evenodd" clip-rule="evenodd" d="M5.09624 17.1918L15.7629 11.8585C15.9839 11.7473 16.1697 11.5769 16.2995 11.3663C16.4292 11.1557 16.498 10.9131 16.498 10.6657C16.498 10.4184 16.4292 10.1758 16.2995 9.96522C16.1697 9.75461 15.9839 9.5842 15.7629 9.47301L5.09624 4.13967C4.89288 4.03854 4.66708 3.99096 4.4402 4.00142C4.21333 4.01188 3.99287 4.08004 3.79968 4.19945C3.60649 4.31887 3.44695 4.48559 3.33615 4.68385C3.22536 4.88211 3.16697 5.10536 3.1665 5.33247V15.9991C3.16695 16.2263 3.22534 16.4495 3.33613 16.6478C3.44693 16.846 3.60647 17.0128 3.79967 17.1322C3.99287 17.2516 4.21334 17.3197 4.44022 17.3302C4.6671 17.3406 4.89289 17.293 5.09624 17.1918ZM20.4998 11.9991H28.4998C28.8534 11.9991 29.1926 11.8587 29.4426 11.6086C29.6927 11.3586 29.8332 11.0194 29.8332 10.6658C29.8332 10.3122 29.6927 9.97305 29.4426 9.723C29.1926 9.47295 28.8534 9.33247 28.4998 9.33247H20.4998C20.1462 9.33247 19.8071 9.47295 19.557 9.723C19.307 9.97305 19.1665 10.3122 19.1665 10.6658C19.1665 11.0194 19.307 11.3586 19.557 11.6086C19.8071 11.8587 20.1462 11.9991 20.4998 11.9991ZM13.833 14.6658H28.4997C28.8533 14.6658 29.1924 14.8063 29.4425 15.0563C29.6925 15.3064 29.833 15.6455 29.833 15.9991C29.833 16.3528 29.6925 16.6919 29.4425 16.9419C29.1924 17.192 28.8533 17.3325 28.4997 17.3325H13.833C13.4794 17.3325 13.1402 17.192 12.8902 16.9419C12.6402 16.6919 12.4997 16.3528 12.4997 15.9991C12.4997 15.6455 12.6402 15.3064 12.8902 15.0563C13.1402 14.8063 13.4794 14.6658 13.833 14.6658ZM28.4998 19.9991H4.49984C4.14622 19.9991 3.80708 20.1396 3.55703 20.3897C3.30698 20.6397 3.1665 20.9789 3.1665 21.3325C3.1665 21.6861 3.30698 22.0252 3.55703 22.2753C3.80708 22.5253 4.14622 22.6658 4.49984 22.6658H28.4998C28.8535 22.6658 29.1926 22.5253 29.4426 22.2753C29.6927 22.0252 29.8332 21.6861 29.8332 21.3325C29.8332 20.9789 29.6927 20.6397 29.4426 20.3897C29.1926 20.1396 28.8535 19.9991 28.4998 19.9991ZM4.49984 25.3325H28.4998C28.8535 25.3325 29.1926 25.473 29.4426 25.723C29.6927 25.973 29.8332 26.3122 29.8332 26.6658C29.8332 27.0194 29.6927 27.3586 29.4426 27.6086C29.1926 27.8587 28.8535 27.9992 28.4998 27.9992H4.49984C4.14622 27.9992 3.80708 27.8587 3.55703 27.6086C3.30698 27.3586 3.1665 27.0194 3.1665 26.6658C3.1665 26.3122 3.30698 25.973 3.55703 25.723C3.80708 25.473 4.14622 25.3325 4.49984 25.3325Z" fill="#656F77"/>
</svg>