<svg width="25" height="24" viewBox="0 0 25 24" fill="none" xmlns="http://www.w3.org/2000/svg">
    <path d="M20.8926 4.20874L13.4998 9.94641V5.01373C13.4997 4.82461 13.4475 4.63925 13.3491 4.47863C13.2506 4.318 13.1097 4.18851 12.9425 4.10477C12.7752 4.02104 12.5882 3.98641 12.4025 4.0048C12.2168 4.02319 12.0399 4.09387 11.8918 4.20884L2.89158 11.1943C2.76978 11.289 2.67112 11.4109 2.60322 11.5504C2.53532 11.69 2.5 11.8436 2.5 11.9992C2.5 12.1548 2.53532 12.3084 2.60322 12.448C2.67112 12.5875 2.76978 12.7094 2.89158 12.8041L11.8918 19.7907C12.04 19.9053 12.2169 19.9757 12.4024 19.994C12.588 20.0122 12.7749 19.9775 12.942 19.8938C13.1092 19.8101 13.25 19.6808 13.3485 19.5204C13.4471 19.3599 13.4994 19.1748 13.4998 18.9858V14.0524L20.8916 19.7908C21.0397 19.9059 21.2166 19.9767 21.4024 19.9952C21.5881 20.0136 21.7753 19.979 21.9426 19.8953C22.11 19.8115 22.2509 19.6819 22.3494 19.5212C22.4479 19.3605 22.5001 19.175 22.5 18.9858V5.01373C22.4995 4.82484 22.4471 4.63983 22.3486 4.47951C22.2501 4.31919 22.1094 4.18993 21.9423 4.10628C21.7753 4.02262 21.5885 3.98789 21.403 4.00599C21.2176 4.02409 21.0408 4.09431 20.8926 4.20874Z" fill="#ACB8C2"/>
</svg>