<svg width="231" height="234" viewBox="0 0 231 234" fill="none" xmlns="http://www.w3.org/2000/svg">
    <circle cx="115.5" cy="115.5" r="113.5" stroke="#A6B9FF" stroke-width="4"/>
    <mask id="path-2-inside-1_510_365" fill="white">
        <path d="M115.5 2.31C115.5 1.03422 116.534 -0.00241349 117.81 0.0230999C133.41 0.335143 148.794 3.80529 163.03 10.2329C177.968 16.9776 191.299 26.8242 202.138 39.1185C212.977 51.4127 221.075 65.873 225.894 81.5383C230.713 97.2037 232.143 113.715 230.089 129.976C228.035 146.237 222.544 161.874 213.98 175.849C205.416 189.823 193.976 201.815 180.421 211.028C166.865 220.24 151.504 226.462 135.358 229.28C119.971 231.966 104.207 231.501 89.0195 227.923C87.7777 227.631 87.0336 226.37 87.3508 225.134C87.6681 223.898 88.9267 223.156 90.1687 223.448C104.721 226.863 119.823 227.302 134.564 224.729C150.064 222.024 164.81 216.051 177.824 207.207C190.837 198.363 201.82 186.85 210.041 173.435C218.262 160.019 223.534 145.007 225.506 129.397C227.478 113.787 226.105 97.9355 221.478 82.8968C216.852 67.8581 209.078 53.9762 198.672 42.1737C188.267 30.3713 175.469 20.9185 161.129 14.4436C147.491 8.28577 132.755 4.95545 117.81 4.64406C116.534 4.61749 115.5 3.58578 115.5 2.31Z"/>
    </mask>
    <path d="M115.5 2.31C115.5 1.03422 116.534 -0.00241349 117.81 0.0230999C133.41 0.335143 148.794 3.80529 163.03 10.2329C177.968 16.9776 191.299 26.8242 202.138 39.1185C212.977 51.4127 221.075 65.873 225.894 81.5383C230.713 97.2037 232.143 113.715 230.089 129.976C228.035 146.237 222.544 161.874 213.98 175.849C205.416 189.823 193.976 201.815 180.421 211.028C166.865 220.24 151.504 226.462 135.358 229.28C119.971 231.966 104.207 231.501 89.0195 227.923C87.7777 227.631 87.0336 226.37 87.3508 225.134C87.6681 223.898 88.9267 223.156 90.1687 223.448C104.721 226.863 119.823 227.302 134.564 224.729C150.064 222.024 164.81 216.051 177.824 207.207C190.837 198.363 201.82 186.85 210.041 173.435C218.262 160.019 223.534 145.007 225.506 129.397C227.478 113.787 226.105 97.9355 221.478 82.8968C216.852 67.8581 209.078 53.9762 198.672 42.1737C188.267 30.3713 175.469 20.9185 161.129 14.4436C147.491 8.28577 132.755 4.95545 117.81 4.64406C116.534 4.61749 115.5 3.58578 115.5 2.31Z" stroke="#A6B9FF" stroke-width="16" mask="url(#path-2-inside-1_510_365)"/>
    <ellipse cx="90" cy="226" rx="8" ry="7.99999" fill="#A6B9FF"/>
</svg>
