<svg width="33" height="32" viewBox="0 0 33 32" fill="none" xmlns="http://www.w3.org/2000/svg">
    <path d="M29.098 22.0825L21.0975 17.6378C20.8942 17.525 20.6683 17.4719 20.4413 17.4834C20.2143 17.4948 19.9937 17.5705 19.8004 17.7032C19.6071 17.836 19.4475 18.0214 19.3368 18.2419C19.226 18.4623 19.1678 18.7106 19.1676 18.963V21.7158C18.0238 21.3928 17.0096 20.6554 16.2851 19.6202C15.5607 18.5851 15.1674 17.3112 15.1674 15.9999C15.1674 14.6886 15.5607 13.4147 16.2851 12.3795C17.0096 11.3443 18.0238 10.607 19.1676 10.2839V13.0367C19.1681 13.2891 19.2265 13.5371 19.3373 13.7574C19.4481 13.9777 19.6076 14.163 19.8008 14.2957C19.994 14.4284 20.2145 14.5041 20.4414 14.5157C20.6683 14.5273 20.8941 14.4744 21.0975 14.362L29.098 9.91719C29.3191 9.79364 29.5048 9.60428 29.6346 9.37026C29.7644 9.13623 29.8332 8.86674 29.8332 8.59184C29.8332 8.31694 29.7644 8.04744 29.6346 7.81342C29.5048 7.57939 29.3191 7.39004 29.098 7.26648L21.0975 2.82171C20.8941 2.70933 20.6683 2.65645 20.4414 2.66808C20.2145 2.6797 19.994 2.75544 19.8008 2.88813C19.6076 3.02083 19.4481 3.20609 19.3373 3.42639C19.2265 3.6467 19.1681 3.89477 19.1676 4.14714V7.24366C18.0889 7.44683 17.0591 7.89346 16.1417 8.55599C15.2244 9.21853 14.4389 10.0829 13.8339 11.0958C13.1054 9.87125 12.1152 8.86633 10.9517 8.17086C9.78829 7.47538 8.4879 7.11101 7.16678 7.11032H4.49993C4.14628 7.11032 3.80712 7.26642 3.55706 7.54427C3.30699 7.82212 3.1665 8.19897 3.1665 8.59191C3.1665 8.98485 3.30699 9.3617 3.55706 9.63955C3.80712 9.91741 4.14628 10.0735 4.49993 10.0735H7.16678C8.58137 10.0735 9.93802 10.6979 10.9383 11.8093C11.9385 12.9207 12.5005 14.4281 12.5005 15.9999C12.5005 17.5716 11.9385 19.079 10.9383 20.1904C9.93802 21.3018 8.58137 21.9262 7.16678 21.9262H4.49993C4.14628 21.9262 3.80712 22.0823 3.55706 22.3602C3.30699 22.638 3.1665 23.0149 3.1665 23.4078C3.1665 23.8008 3.30699 24.1776 3.55706 24.4555C3.80712 24.7333 4.14628 24.8894 4.49993 24.8894H7.16678C8.4879 24.8887 9.78829 24.5244 10.9517 23.8289C12.1152 23.1334 13.1054 22.1285 13.8339 20.9039C14.4389 21.9168 15.2244 22.7812 16.1417 23.4437C17.0591 24.1063 18.0889 24.5529 19.1676 24.7561V27.8526C19.1681 28.105 19.2265 28.353 19.3373 28.5734C19.4481 28.7937 19.6076 28.9789 19.8008 29.1116C19.994 29.2443 20.2145 29.32 20.4414 29.3316C20.6683 29.3432 20.8941 29.2903 21.0975 29.1779L29.098 24.7331C29.319 24.6095 29.5048 24.4202 29.6345 24.1862C29.7643 23.9522 29.833 23.6827 29.833 23.4078C29.833 23.1329 29.7643 22.8635 29.6345 22.6295C29.5048 22.3955 29.319 22.2061 29.098 22.0825Z" fill="#656F77"/>
</svg>